<?xml version="1.0" standalone="no"?>
<!DOCTYPE svg PUBLIC "-//W3C//DTD SVG 20010904//EN"
 "http://www.w3.org/TR/2001/REC-SVG-20010904/DTD/svg10.dtd">
<svg version="1.0" xmlns="http://www.w3.org/2000/svg"
 width="688.000000pt" height="884.000000pt" viewBox="0 0 688.000000 884.000000"
 preserveAspectRatio="xMidYMid meet">
<metadata>
Created by potrace 1.16, written by Peter Selinger 2001-2019
</metadata>
<g transform="translate(0.000000,884.000000) scale(0.100000,-0.100000)"
fill="#000000" stroke="none">
<path d="M3670 7815 c-93 -13 -116 -20 -210 -68 -71 -37 -127 -58 -174 -66
-66 -12 -71 -11 -121 14 -47 24 -58 26 -131 20 -78 -6 -146 -28 -175 -57 -21
-21 -56 -31 -64 -18 -10 16 -47 12 -83 -10 -24 -15 -50 -20 -100 -20 -172 -1
-237 -25 -345 -129 -35 -34 -92 -73 -145 -101 -48 -25 -97 -52 -110 -61 -55
-39 -172 -154 -172 -169 0 -9 -3 -20 -7 -23 -3 -4 -16 -29 -27 -56 -17 -40
-38 -63 -111 -121 -96 -76 -141 -132 -151 -185 -12 -67 -3 -69 55 -15 89 84
92 70 17 -89 -30 -64 -61 -137 -70 -164 -18 -54 -30 -197 -16 -197 5 0 10 10
12 22 5 33 28 35 28 2 0 -15 -3 -24 -7 -21 -3 4 -17 -26 -30 -65 -13 -40 -30
-86 -38 -103 -19 -42 -51 -183 -64 -286 -14 -105 -14 -247 -1 -359 5 -47 14
-170 19 -275 6 -111 18 -231 30 -290 22 -108 36 -204 33 -220 -1 -5 10 -19 24
-30 47 -37 126 -125 112 -125 -7 0 -6 -5 2 -15 12 -14 6 -35 -10 -35 -5 0 -12
11 -16 25 -6 24 -22 29 -37 10 -5 -6 -12 -4 -20 5 -32 40 -104 74 -133 63 -18
-7 -18 -54 0 -78 14 -19 15 -19 27 8 14 32 48 36 72 9 19 -21 22 -57 7 -67
-27 -17 13 -53 67 -61 6 -1 28 -14 47 -29 27 -21 36 -35 36 -57 0 -34 -47 -88
-77 -88 -14 0 -15 -2 -5 -9 11 -7 11 -14 -4 -42 -10 -19 -17 -40 -15 -47 1 -8
-4 -21 -13 -30 -8 -10 -17 -30 -21 -47 -4 -16 -11 -40 -17 -52 -17 -36 -1 -90
38 -126 51 -46 54 -47 121 -34 l61 11 -19 26 c-22 28 -37 100 -22 100 28 0 78
-112 71 -160 -3 -21 -47 -61 -80 -72 -7 -3 -9 -12 -5 -22 6 -16 12 -14 55 16
61 44 76 43 80 -4 5 -59 -16 -118 -55 -154 -54 -51 -56 -52 -87 -43 -43 12
-44 3 -2 -15 l36 -15 0 -78 c0 -70 -7 -141 -40 -427 -18 -151 7 -220 87 -247
34 -11 38 -10 55 11 10 12 18 35 18 51 0 39 27 102 40 94 12 -8 13 -76 1 -128
-5 -20 -5 -39 -1 -42 4 -3 7 -32 5 -65 l-3 -60 82 -73 c109 -98 181 -157 240
-197 27 -18 74 -55 103 -82 29 -26 58 -48 64 -48 23 0 147 -103 162 -136 13
-26 23 -34 42 -34 15 0 59 -24 105 -56 l80 -56 -6 -39 c-6 -34 -4 -39 13 -39
12 0 26 6 33 14 15 19 34 12 99 -41 30 -24 67 -51 83 -59 32 -17 37 -34 9 -34
-31 0 -36 -21 -11 -42 18 -15 32 -18 63 -12 22 3 42 2 46 -2 3 -5 35 -29 71
-53 36 -25 67 -48 68 -53 2 -4 10 -8 18 -8 8 0 14 -4 14 -9 0 -5 29 -23 65
-41 36 -18 95 -56 130 -84 35 -28 81 -62 102 -76 61 -40 161 -148 187 -204 29
-58 51 -205 43 -276 -3 -26 -12 -62 -20 -81 -8 -19 -20 -63 -27 -99 -6 -35
-18 -76 -25 -91 -12 -23 -12 -29 8 -57 12 -18 27 -32 32 -32 6 0 27 16 47 35
42 40 84 60 94 44 3 -6 3 -31 -1 -56 -5 -37 -3 -51 18 -81 13 -21 27 -55 30
-77 6 -39 31 -70 48 -59 5 3 9 1 9 -5 0 -6 12 -14 28 -17 15 -4 36 -13 48 -21
18 -11 23 -11 37 5 25 28 48 89 51 140 2 29 8 46 15 44 7 -1 9 6 5 22 -4 16
-1 25 10 29 9 4 16 13 16 20 0 8 9 22 20 32 11 10 20 31 20 48 0 26 -3 29 -26
24 -25 -4 -25 -4 -23 54 1 32 -1 62 -4 66 -4 3 -7 17 -7 29 0 13 -4 25 -9 28
-5 4 -23 43 -41 88 -17 46 -38 90 -47 100 -8 10 -20 48 -25 85 -5 37 -11 85
-15 106 -4 32 -2 41 16 53 28 20 27 28 -11 63 -32 29 -33 34 -30 97 2 61 -1
69 -29 105 -23 29 -32 53 -36 94 -5 49 -9 57 -39 74 -18 11 -40 34 -50 52 -15
30 -15 34 0 44 11 8 16 27 16 59 0 27 7 58 17 72 9 14 68 60 132 102 63 42
132 94 153 114 25 25 64 93 119 205 45 92 99 188 119 213 20 25 47 60 60 79
22 33 23 34 5 47 -10 8 -15 17 -11 21 4 4 11 1 16 -7 7 -12 12 -12 28 3 24 22
86 147 76 156 -4 3 -9 1 -11 -6 -2 -7 -11 -9 -19 -6 -17 6 -19 -18 -2 -35 8
-8 9 -12 1 -12 -6 0 -14 6 -17 13 -3 8 -11 4 -25 -13 -12 -14 -25 -30 -31 -37
-6 -8 -5 -13 3 -16 7 -2 9 -8 5 -12 -5 -5 -18 0 -29 11 -22 19 -22 19 -15 -8
4 -17 2 -28 -4 -28 -5 0 -10 7 -10 16 0 11 -6 14 -22 8 -26 -8 -39 -24 -31
-38 3 -5 1 -6 -5 -2 -8 4 -12 0 -12 -11 0 -15 -2 -16 -10 -3 -8 13 -11 13 -19
1 -7 -11 -11 -9 -20 8 -7 12 -9 26 -6 31 3 6 3 16 -2 23 -8 12 -10 22 -18 67
-2 14 -4 25 -5 25 -7 0 -6 113 1 121 10 12 22 133 20 197 -1 51 -53 147 -91
169 -17 10 -30 25 -30 36 0 11 -7 23 -16 26 -22 9 -24 8 -24 -9 0 -24 -16 -18
-45 17 -19 23 -29 28 -34 19 -6 -10 -10 -9 -14 3 -4 9 -13 13 -21 10 -21 -8
-93 65 -76 76 9 5 11 24 8 56 -4 41 -13 57 -49 97 -52 56 -61 55 -144 -10 -99
-78 -122 -81 -163 -20 -84 121 -156 132 -306 47 -30 -17 -57 -38 -60 -46 -8
-21 -42 -2 -67 39 l-20 32 4 -38 c3 -20 12 -46 22 -57 13 -15 14 -20 5 -20 -9
0 -7 -6 7 -19 12 -11 30 -17 44 -15 13 2 33 -3 44 -11 18 -14 18 -16 2 -32
-15 -15 -21 -16 -38 -5 -23 15 -41 8 -33 -13 5 -12 0 -14 -25 -9 -24 5 -35 2
-45 -11 -8 -12 -20 -16 -35 -12 -11 3 -21 1 -21 -4 0 -4 -8 -5 -17 -2 -13 5
-15 2 -10 -11 6 -14 3 -17 -9 -12 -8 3 -20 6 -26 6 -6 0 -8 6 -5 14 6 15 -21
15 -55 1 -13 -5 -18 -2 -18 10 0 13 -7 11 -35 -14 -42 -37 -50 -38 -60 -8 -6
20 -8 18 -17 -16 -10 -38 -60 -97 -82 -97 -6 0 -12 -9 -13 -20 -1 -11 2 -20 8
-20 5 0 9 -4 9 -10 0 -5 -7 -10 -15 -10 -8 0 -15 5 -15 10 0 6 -5 10 -11 10
-5 0 -10 -8 -9 -17 3 -28 -11 -63 -25 -63 -7 0 -15 -7 -18 -14 -5 -11 -13 -13
-35 -7 -17 5 -36 5 -46 -1 -14 -8 -19 -5 -23 11 -3 11 -9 18 -14 15 -5 -3 -9
2 -9 10 0 9 -7 16 -15 16 -8 0 -15 -2 -15 -5 0 -10 34 -60 50 -73 13 -11 13
-11 0 -7 -24 8 -46 -11 -32 -27 7 -9 8 -19 1 -28 -8 -13 -10 -13 -19 0 -5 8
-10 26 -10 40 -1 23 -2 24 -14 8 -7 -10 -23 -18 -35 -18 -12 0 -19 -4 -16 -10
3 -5 15 -10 26 -10 10 0 19 -6 19 -14 0 -19 -17 -29 -25 -16 -10 16 -25 12
-26 -7 0 -14 -3 -13 -11 5 -11 22 -44 27 -42 6 1 -5 -7 -17 -17 -27 -11 -9
-19 -14 -19 -11 0 11 23 49 34 56 6 4 8 10 4 13 -8 8 -48 -17 -48 -30 0 -6 -9
-16 -20 -23 -19 -11 -28 -3 -13 12 17 16 9 41 -23 75 -18 20 -34 41 -34 46 0
6 -10 11 -22 12 -11 1 -24 7 -29 14 -4 8 -9 4 -14 -10 -4 -13 -9 -20 -13 -17
-3 3 -14 -2 -24 -11 -18 -16 -18 -15 -3 20 21 50 19 66 -10 77 -14 5 -25 14
-25 20 0 6 -6 18 -14 26 -8 7 -12 22 -9 33 3 10 0 22 -6 25 -6 4 -11 2 -11 -3
0 -6 -5 -11 -11 -11 -6 0 -9 7 -5 15 3 8 1 26 -4 40 -7 18 -6 27 4 32 15 9 27
73 14 73 -4 0 -8 -12 -8 -26 0 -14 -4 -23 -10 -19 -6 3 -14 -4 -19 -17 -7 -19
-10 -13 -16 35 -5 36 -12 57 -20 57 -8 0 -11 8 -8 20 3 11 1 20 -5 20 -6 0
-14 17 -17 38 -3 20 -10 45 -16 54 -11 22 -12 41 -1 34 5 -3 5 21 0 52 -18
122 -27 209 -24 235 2 15 0 30 -4 32 -5 3 -6 13 -4 23 3 9 -2 42 -10 72 -8 30
-11 57 -8 60 9 6 8 32 0 46 -4 6 -5 30 -2 55 2 24 6 130 8 235 4 186 19 314
37 314 5 0 9 13 9 29 0 44 18 82 40 88 10 3 25 18 32 33 13 30 54 37 63 10 3
-8 18 -21 34 -28 16 -7 31 -22 34 -32 3 -11 10 -20 15 -20 6 0 8 9 5 21 -4 14
1 25 16 35 12 9 18 20 15 26 -4 6 -9 5 -15 -3 -4 -7 -11 -10 -15 -6 -4 4 3 18
16 32 18 19 26 22 32 13 5 -8 8 -2 8 17 0 21 -3 26 -9 16 -6 -10 -13 -11 -27
-3 -17 9 -16 11 9 17 21 6 26 12 22 26 -5 16 -1 17 39 13 38 -3 47 -1 56 17 7
11 9 23 6 27 -3 3 -6 1 -6 -3 0 -14 -29 29 -30 43 0 6 7 12 16 12 8 0 12 5 9
10 -3 6 -1 10 5 10 7 0 9 -7 6 -15 -3 -8 -9 -22 -13 -32 -4 -11 -3 -14 5 -9 7
4 12 2 12 -5 0 -7 8 -5 20 6 11 10 20 26 20 35 0 28 24 70 39 67 8 -1 16 3 18
9 2 7 -4 11 -13 10 -9 0 -19 5 -22 13 -5 16 35 6 54 -14 14 -14 8 -55 -8 -55
-15 0 -98 -89 -98 -105 0 -8 -4 -15 -9 -15 -5 0 -12 -9 -16 -19 -3 -11 -15
-23 -26 -26 -12 -4 -19 -15 -19 -30 0 -17 5 -23 15 -20 8 3 22 7 31 10 8 3 12
10 8 16 -4 8 -9 7 -15 -2 -4 -7 -11 -10 -15 -6 -4 4 1 14 12 21 17 13 20 12
29 -2 5 -9 10 -21 10 -26 0 -12 45 -28 45 -17 0 5 -6 12 -12 14 -7 3 -3 6 10
6 33 1 94 29 88 40 -3 5 17 4 46 -3 54 -12 72 -30 38 -39 -13 -3 -20 0 -20 9
0 21 -43 17 -58 -6 -14 -23 -10 -25 18 -8 16 11 23 10 37 -5 16 -15 16 -19 3
-27 -11 -7 -16 -5 -18 5 -2 8 -8 15 -13 15 -6 0 -9 -8 -7 -17 2 -12 -8 -23
-32 -35 -19 -10 -41 -17 -47 -18 -7 0 -13 -7 -13 -16 0 -14 3 -14 15 -4 9 7
19 10 23 6 9 -10 -38 -46 -61 -46 -16 0 -18 -6 -14 -40 2 -22 1 -43 -4 -46 -5
-3 -9 2 -9 10 0 18 -15 21 -25 6 -8 -14 34 -53 51 -46 8 3 14 -1 14 -10 0 -12
-6 -15 -25 -10 -24 6 -25 5 -13 -14 7 -11 21 -23 30 -26 21 -6 23 -15 6 -33
-9 -10 -10 -12 -1 -7 17 9 63 -4 60 -17 -2 -11 5 -14 47 -16 17 -1 26 -9 30
-27 5 -18 12 -24 22 -20 9 3 25 -4 38 -19 13 -14 32 -25 42 -26 11 0 13 -3 7
-6 -22 -8 -14 -23 11 -23 13 0 29 -7 36 -15 7 -8 19 -15 26 -15 8 0 14 -4 14
-10 0 -5 11 -10 24 -10 13 0 29 -7 36 -15 7 -9 21 -13 31 -10 10 4 27 1 38 -4
13 -7 22 -8 26 -1 3 5 13 10 21 10 8 0 13 -4 10 -9 -3 -5 10 -9 30 -9 19 0 38
-3 41 -6 4 -3 -2 -6 -13 -6 -13 0 -20 -7 -21 -22 0 -13 1 -17 4 -10 6 16 42
15 73 -3 37 -21 129 -17 115 5 -3 4 11 4 29 0 25 -5 36 -4 40 5 2 7 23 15 46
19 22 3 43 13 46 21 4 8 12 15 19 15 7 0 19 7 26 16 10 12 23 14 51 10 31 -5
39 -3 48 14 6 11 8 25 5 30 -3 5 -1 12 5 15 6 4 8 15 5 26 -4 11 -1 21 7 24
18 7 18 166 0 188 -10 12 -10 17 -1 23 9 5 7 11 -6 20 -10 7 -15 20 -12 28 4
10 1 13 -9 9 -17 -6 -19 8 -2 25 8 8 5 14 -15 21 -23 9 -25 14 -19 48 12 75 9
88 -20 91 -30 4 -40 32 -12 32 11 0 15 6 11 20 -3 11 -2 18 3 15 4 -3 10 2 14
10 3 8 1 17 -4 20 -5 3 -5 18 -1 33 10 34 4 52 -17 52 -12 0 -13 -3 -4 -12 7
-7 12 -18 12 -26 0 -11 -3 -10 -15 2 -9 8 -14 29 -13 48 2 23 -1 33 -12 33
-47 3 -110 19 -110 29 0 6 -8 12 -17 13 -10 1 -63 10 -118 19 -55 9 -115 17
-132 16 -18 0 -33 4 -33 9 0 5 -11 7 -24 3 -13 -3 -27 -1 -31 6 -4 6 -16 8
-27 4 -14 -4 -18 -2 -14 5 7 11 -12 14 -91 13 -24 0 -43 3 -43 8 0 10 -73 -12
-115 -34 -16 -9 -36 -16 -43 -16 -18 0 -43 -26 -34 -35 4 -4 0 -6 -8 -3 -8 3
-20 -2 -27 -11 -11 -14 -12 -14 -13 2 0 10 -5 15 -10 12 -6 -3 -13 1 -16 9 -3
9 -12 16 -20 16 -8 0 -14 7 -14 15 0 19 57 45 79 37 9 -3 12 -1 7 6 -5 8 1 12
18 12 14 0 26 -5 26 -12 0 -7 5 -6 13 4 6 8 27 21 46 27 44 14 43 14 32 -6 -7
-15 -5 -18 14 -18 15 0 21 3 15 9 -15 15 -12 26 5 26 8 0 15 5 15 10 0 6 5 10
11 10 6 0 9 -7 6 -14 -4 -10 -1 -13 8 -9 11 4 12 10 5 23 -6 10 -10 25 -9 32
0 7 5 3 11 -9 13 -27 40 -31 36 -5 -2 14 6 18 40 20 34 3 42 7 38 19 -9 23 4
36 18 17 8 -10 18 -14 26 -9 9 6 10 9 0 15 -14 8 -5 30 11 30 6 0 7 -5 3 -12
-5 -8 0 -9 17 -3 13 4 40 8 59 7 19 0 28 3 20 6 -8 3 -23 13 -34 24 -20 18
-19 18 15 19 19 0 28 3 20 6 -7 3 -21 13 -30 22 -15 15 -14 17 24 16 22 0 46
-4 54 -9 7 -5 3 6 -10 23 -21 29 -25 30 -36 15 -8 -11 -18 -14 -30 -9 -17 8
-17 8 1 13 15 3 16 6 5 14 -10 7 -11 11 -2 14 16 7 -15 44 -37 44 -12 1 -11 3
3 11 10 6 28 9 40 7 12 -1 28 1 35 5 17 11 15 44 -4 51 -9 3 -14 12 -12 18 5
13 39 18 48 6 3 -3 16 2 28 13 l24 19 -26 11 c-14 7 -27 18 -30 26 -3 8 -2 12
2 11 4 -2 19 -10 35 -18 22 -11 30 -11 40 -1 9 10 9 15 -5 25 -15 11 -15 13 3
24 24 16 92 6 82 -12 -4 -6 1 -4 12 4 17 14 17 15 -11 21 l-29 6 29 12 c22 9
32 9 44 -1 13 -11 14 -10 8 10 -6 18 -4 22 13 22 12 0 21 6 21 14 0 11 11 14
44 12 24 -2 61 3 82 10 33 11 39 11 50 -4 17 -23 31 -6 16 19 -12 19 -11 20
22 13 28 -5 37 -3 42 10 7 18 25 22 22 5 -2 -6 3 -14 10 -16 7 -3 12 5 12 20
0 14 6 28 13 30 9 4 9 6 -1 6 -7 1 -10 5 -7 11 4 6 13 5 26 -3 18 -10 23 -8
43 15 15 16 27 23 33 17 6 -6 17 -1 31 11 11 11 28 20 37 20 8 0 15 9 15 21 0
11 4 17 10 14 6 -4 16 -2 23 3 18 14 57 21 57 10 0 -5 10 -6 22 -3 16 6 20 4
16 -7 -5 -11 18 -13 136 -12 77 1 148 -2 157 -7 10 -5 21 -3 28 4 8 8 14 8 19
1 13 -18 83 -54 107 -54 13 0 30 -7 38 -15 9 -8 17 -11 19 -6 2 5 12 3 23 -6
13 -10 16 -17 8 -20 -20 -7 -3 -31 18 -26 14 4 19 0 19 -16 0 -11 4 -21 10
-21 5 0 7 -7 4 -15 -4 -10 0 -15 11 -15 9 0 13 -5 10 -11 -4 -6 3 -13 15 -16
18 -5 20 -10 14 -36 -5 -25 -4 -29 10 -24 11 5 16 1 16 -14 0 -11 8 -23 18
-26 28 -11 41 -35 31 -55 -6 -11 -6 -18 0 -18 5 0 11 7 15 15 3 8 10 15 16 15
16 0 12 -27 -7 -45 -12 -12 -13 -19 -4 -24 6 -4 13 -34 15 -65 2 -42 8 -61 19
-68 24 -13 21 -28 -5 -28 -20 0 -19 -2 10 -28 39 -35 40 -44 7 -36 -34 8 -32
-7 5 -34 17 -13 30 -29 30 -37 0 -21 -18 -18 -32 5 -14 22 -28 26 -28 9 0 -6
14 -24 31 -40 27 -25 29 -31 18 -45 -11 -14 -11 -18 4 -29 19 -13 9 -33 -28
-54 -19 -11 -19 -12 3 -6 13 4 30 1 38 -6 13 -11 15 -10 12 6 -1 10 3 20 10
22 9 4 11 -2 7 -20 -5 -19 -1 -30 14 -44 23 -19 28 -43 9 -43 -7 0 -1 -11 12
-24 17 -15 27 -19 32 -12 4 6 8 -13 8 -41 0 -29 4 -53 9 -53 41 0 64 -485 42
-891 -21 -376 -28 -447 -66 -671 -23 -137 -30 -244 -13 -198 26 71 38 122 38
158 0 27 13 76 35 128 19 46 35 92 35 102 0 10 6 42 14 72 9 34 11 59 5 65
-16 16 -10 53 18 118 25 56 27 72 26 171 -1 67 2 115 9 123 6 7 28 16 49 19
l39 7 0 106 c0 64 6 128 15 161 8 30 22 87 30 125 17 74 44 164 104 335 35
103 36 108 36 255 -1 157 -9 203 -61 348 -50 142 -84 295 -84 384 0 135 -77
423 -137 510 -47 68 -127 191 -153 234 -26 43 -156 139 -188 139 -17 0 -25 15
-69 122 -80 191 -180 363 -291 497 -31 38 -75 92 -97 119 -44 55 -66 67 -204
112 -118 39 -159 42 -291 25z m-1569 -586 c11 -5 39 -12 62 -15 60 -7 68 -21
32 -50 -31 -24 -35 -26 -150 -63 -38 -13 -99 -36 -134 -53 -34 -16 -65 -27
-68 -25 -15 16 98 163 152 197 33 22 76 25 106 9z m-320 -3056 c3 -51 5 -58
14 -56 6 1 9 -15 7 -38 -3 -23 0 -39 7 -39 6 0 10 -31 9 -85 -1 -47 -2 -85 -3
-85 -1 0 -10 21 -20 48 -9 26 -30 72 -46 103 -30 59 -36 100 -19 143 11 30 49
36 51 9z"/>
<path d="M4350 5222 c0 -4 -23 -8 -51 -9 -30 -1 -59 -9 -69 -18 -9 -8 -22 -15
-29 -15 -7 0 -19 -7 -28 -16 -9 -8 -22 -13 -29 -10 -7 3 -16 1 -19 -4 -10 -16
-25 -11 -25 8 -1 16 -1 16 -14 0 -7 -10 -18 -18 -25 -18 -6 0 -11 -4 -11 -10
0 -5 -6 -10 -14 -10 -7 0 -21 -15 -30 -32 -70 -135 -94 -173 -121 -188 -17 -9
-32 -25 -33 -34 -2 -10 -12 -26 -22 -36 -25 -25 -40 -82 -40 -150 0 -62 44
-204 73 -232 9 -10 17 -22 17 -26 0 -5 11 -14 24 -22 13 -7 27 -22 30 -34 5
-16 8 -18 15 -7 7 11 12 10 27 -8 10 -11 26 -21 36 -21 9 0 20 -5 23 -10 5 -9
69 -40 82 -40 2 0 1 5 -3 11 -5 8 3 10 24 7 23 -3 29 -1 25 10 -5 11 3 13 33
11 90 -7 284 26 284 48 0 8 4 11 10 8 5 -3 30 15 55 41 46 46 47 46 97 40 46
-6 50 -5 38 8 -11 15 -7 20 13 17 4 -1 5 10 1 23 -4 16 -1 25 10 29 9 4 16 11
16 17 0 6 -4 9 -8 6 -4 -2 -14 -1 -22 5 -13 7 -12 9 3 9 20 0 23 16 5 23 -8 3
-6 6 5 6 24 1 21 16 -5 29 -23 10 -23 11 5 11 29 1 39 21 10 21 -9 0 -13 3
-10 7 4 3 0 17 -9 30 -15 23 -14 25 6 30 19 5 19 7 4 18 -17 12 -11 40 7 30 5
-4 9 -1 9 4 0 6 7 11 15 11 8 0 15 5 15 11 0 6 -7 9 -15 5 -10 -4 -15 1 -15
15 0 17 -5 20 -26 16 -37 -7 -15 10 24 18 19 4 32 3 32 -3 0 -6 -5 -12 -11
-14 -5 -2 6 -11 25 -19 30 -14 36 -14 36 -3 0 8 -6 14 -14 14 -14 0 -30 29
-21 38 3 3 10 1 17 -6 8 -8 14 -7 24 3 12 11 12 20 0 52 -7 21 -11 44 -9 51 3
7 -2 24 -11 38 -9 13 -14 29 -11 34 3 6 1 10 -5 10 -14 0 -66 61 -62 73 1 5
-3 7 -10 5 -6 -2 -23 5 -36 16 -13 12 -27 21 -30 21 -4 0 -23 10 -43 23 -20
12 -56 24 -80 27 -94 11 -159 14 -159 7z"/>
<path d="M1416 4060 c-3 -19 -8 -52 -11 -74 -5 -33 -2 -44 24 -77 17 -21 31
-41 31 -44 0 -8 57 -91 80 -116 23 -26 68 -35 76 -15 4 12 -12 36 -53 79 -68
70 -95 117 -113 197 -18 78 -27 92 -34 50z"/>
<path d="M1717 2481 c-19 -22 -41 -50 -48 -63 -7 -12 -24 -39 -39 -58 -14 -19
-45 -60 -67 -90 -22 -30 -78 -107 -124 -170 -47 -63 -98 -134 -115 -157 -35
-51 -81 -74 -189 -97 -44 -10 -102 -24 -130 -31 -27 -8 -90 -23 -140 -34 -49
-12 -106 -25 -125 -31 -82 -22 -254 -65 -370 -90 -69 -16 -169 -40 -224 -54
-54 -14 -109 -26 -122 -26 l-24 0 0 -790 0 -790 1696 0 c1611 0 1696 1 1689
18 -4 9 -11 31 -15 47 -4 17 -24 57 -44 90 -43 71 -87 203 -79 235 5 18 -2 30
-30 54 -31 28 -132 204 -122 215 2 2 27 -8 55 -22 l51 -26 -6 32 c-4 18 -11
36 -16 41 -5 6 -9 22 -9 37 0 42 -18 80 -41 86 -11 3 -18 11 -15 19 3 7 -2 18
-10 24 -28 24 -16 76 18 71 14 -1 35 87 32 135 -7 102 -5 147 6 154 7 4 10 18
8 31 -4 23 -5 23 -12 4 -17 -45 -73 -163 -124 -261 -22 -44 -67 -74 -83 -57
-4 4 -22 35 -40 68 -17 33 -37 67 -44 75 -7 8 -27 44 -45 80 -18 36 -52 98
-76 137 -24 40 -44 77 -44 82 0 6 9 15 21 21 14 8 19 19 17 38 -4 36 -34 41
-42 8 -9 -35 -23 -33 -44 6 -32 59 -105 163 -146 208 -81 90 -189 225 -212
265 -10 17 -17 45 -15 63 1 17 -3 32 -9 32 -5 0 -10 -4 -10 -10 0 -5 -8 -10
-19 -10 -11 0 -35 22 -58 53 -58 76 -191 227 -298 337 -51 52 -97 105 -104
118 -16 30 -23 28 -64 -17z"/>
<path d="M4286 892 c15 -31 15 -253 -1 -317 -7 -33 -22 -96 -31 -140 -17 -73
-30 -106 -65 -162 -18 -30 -6 -49 58 -91 128 -83 152 -105 159 -144 l7 -38
543 0 c311 0 544 4 544 9 0 36 -209 261 -370 398 -58 49 -130 114 -160 144
-30 30 -77 67 -105 83 -47 28 -137 90 -268 188 -32 24 -72 51 -88 61 l-29 19
8 -34 c20 -92 12 -120 -93 -318 -24 -47 -45 -88 -45 -91 0 -16 -63 -139 -68
-135 -3 3 0 30 6 58 6 29 16 91 21 137 10 77 14 87 51 127 28 31 40 52 40 74
0 16 4 30 9 30 5 0 8 7 7 16 0 9 5 19 12 21 7 3 12 -4 12 -16 0 -12 5 -21 10
-21 15 0 12 26 -5 40 -8 7 -20 30 -25 51 -12 44 -26 54 -94 63 -43 5 -47 4
-40 -12z"/>
</g>
</svg>
